<?xml version="1.0" encoding="utf-8"?>
<!-- Generator: Adobe Illustrator 16.0.0, SVG Export Plug-In . SVG Version: 6.00 Build 0)  -->
<!DOCTYPE svg PUBLIC "-//W3C//DTD SVG 1.1//EN" "http://www.w3.org/Graphics/SVG/1.1/DTD/svg11.dtd">
<svg version="1.1" id="Calque_1" xmlns="http://www.w3.org/2000/svg" xmlns:xlink="http://www.w3.org/1999/xlink" x="0px" y="0px"
	 width="265px" height="98px" viewBox="0 0 265 98" enable-background="new 0 0 265 98" xml:space="preserve">
<g>
	<linearGradient id="SVGID_1_" gradientUnits="userSpaceOnUse" x1="8.9331" y1="17.9751" x2="8.9331" y2="85.4729">
		<stop  offset="0" style="stop-color:#3A0D28"/>
		<stop  offset="0.1595" style="stop-color:#72214E"/>
		<stop  offset="0.8037" style="stop-color:#72214E"/>
		<stop  offset="1" style="stop-color:#3A0D28"/>
	</linearGradient>
	<polygon fill="url(#SVGID_1_)" points="16.993,97.359 0.873,97.359 0.873,7.319 16.993,1.655 	"/>
	<linearGradient id="SVGID_2_" gradientUnits="userSpaceOnUse" x1="15.3643" y1="10.4521" x2="88.2361" y2="83.324">
		<stop  offset="0.1166" style="stop-color:#C00046"/>
		<stop  offset="0.2417" style="stop-color:#BE0045"/>
		<stop  offset="0.2868" style="stop-color:#B70043"/>
		<stop  offset="0.319" style="stop-color:#AC003F"/>
		<stop  offset="0.345" style="stop-color:#9B003A"/>
		<stop  offset="0.3672" style="stop-color:#850033"/>
		<stop  offset="0.3866" style="stop-color:#6A002A"/>
		<stop  offset="0.3926" style="stop-color:#600027"/>
		<stop  offset="0.5706" style="stop-color:#600027"/>
		<stop  offset="0.5834" style="stop-color:#77002E"/>
		<stop  offset="0.6023" style="stop-color:#910037"/>
		<stop  offset="0.6231" style="stop-color:#A6003E"/>
		<stop  offset="0.6463" style="stop-color:#B50042"/>
		<stop  offset="0.674" style="stop-color:#BD0045"/>
		<stop  offset="0.7178" style="stop-color:#C00046"/>
		<stop  offset="0.7672" style="stop-color:#BA0044"/>
		<stop  offset="0.8312" style="stop-color:#AA003F"/>
		<stop  offset="0.9032" style="stop-color:#8F0036"/>
		<stop  offset="0.9806" style="stop-color:#6A002A"/>
		<stop  offset="1" style="stop-color:#600027"/>
	</linearGradient>
	<polygon fill="url(#SVGID_2_)" points="0.873,7.319 16.993,0.64 97.594,81.239 89.452,95.981 	"/>
	<linearGradient id="SVGID_3_" gradientUnits="userSpaceOnUse" x1="39.3892" y1="89.2998" x2="17.8292" y2="89.2998">
		<stop  offset="0" style="stop-color:#E3342D"/>
		<stop  offset="0.3153" style="stop-color:#C32B27"/>
		<stop  offset="0.7669" style="stop-color:#9A201F"/>
		<stop  offset="1" style="stop-color:#8A1C1C"/>
	</linearGradient>
	<polygon fill="url(#SVGID_3_)" points="12.271,97.359 7.862,81.239 97.594,81.239 90.877,97.359 	"/>
	<polygon fill="#F46A27" points="12.271,97.359 5.631,81.239 69.265,17.569 80.663,28.969 	"/>
	<g>
		<path fill="#7C8988" d="M110.72,49.35V29.875h4.347v15.603h8.302v3.872H110.72z"/>
		<path fill="#7C8988" d="M141.245,49.35l-1.812-4.207h-8.163l-1.811,4.207h-4.625l8.414-19.475h4.207l8.413,19.475H141.245z
			 M135.366,35.67l-2.451,5.656h4.875L135.366,35.67z"/>
		<path fill="#7C8988" d="M154.379,33.637V49.35h-4.347V33.637h-5.516v-3.762h15.379v3.762H154.379z"/>
		<path fill="#7C8988" d="M176.651,29.875v3.873h-9.695v4.012h8.72v3.705h-8.72v4.04h10.002v3.845h-14.349V29.875H176.651z"/>
		<path fill="#7C8988" d="M196.67,36.339c0,3.12-1.235,5.136-3.705,6.046l4.931,6.965h-5.349l-4.318-6.213h-3.009v6.213h-4.347
			V29.875h7.384c3.026,0,5.186,0.512,6.477,1.533S196.67,34.074,196.67,36.339z M191.433,38.652
			c0.538-0.482,0.808-1.249,0.808-2.299c0-1.049-0.278-1.769-0.836-2.159c-0.557-0.39-1.532-0.585-2.925-0.585h-3.26v5.768h3.176
			C189.882,39.376,190.894,39.135,191.433,38.652z"/>
		<path fill="#7C8988" d="M215.796,49.35l-1.812-4.207h-8.163l-1.811,4.207h-4.625l8.414-19.475h4.207l8.413,19.475H215.796z
			 M209.917,35.67l-2.451,5.656h4.875L209.917,35.67z"/>
		<path fill="#7C8988" d="M222.685,49.35V29.875h4.347v15.603h8.302v3.872H222.685z"/>
		<path fill="#7C8988" d="M118.967,57.517V73.23h-4.347V57.517h-5.516v-3.762h15.379v3.762H118.967z"/>
		<path fill="#7C8988" d="M139.288,53.755h4.346V73.23h-4.346v-7.662h-7.745v7.662h-4.347V53.755h4.347v8.135h7.745V53.755z"/>
		<path fill="#7C8988" d="M164.715,70.541c-1.969,1.922-4.393,2.885-7.271,2.885s-5.303-0.963-7.271-2.885s-2.953-4.313-2.953-7.174
			c0-2.859,0.984-5.252,2.953-7.173c1.969-1.923,4.393-2.884,7.271-2.884s5.303,0.961,7.271,2.884
			c1.969,1.921,2.953,4.314,2.953,7.173C167.668,66.229,166.684,68.619,164.715,70.541z M163.239,63.381
			c0-1.736-0.557-3.217-1.671-4.443c-1.115-1.225-2.484-1.838-4.109-1.838c-1.626,0-2.995,0.613-4.109,1.838
			c-1.115,1.227-1.672,2.707-1.672,4.443c0,1.738,0.557,3.215,1.672,4.43c1.114,1.217,2.483,1.826,4.109,1.826
			c1.625,0,2.994-0.609,4.109-1.826C162.682,66.596,163.239,65.119,163.239,63.381z"/>
		<path fill="#7C8988" d="M176.302,68.201c0.725,0.9,1.7,1.352,2.926,1.352s2.196-0.451,2.911-1.352s1.072-2.131,1.072-3.691V53.755
			h4.347v10.893c0,2.824-0.78,4.992-2.341,6.506c-1.56,1.514-3.557,2.271-5.989,2.271c-2.434,0-4.435-0.762-6.004-2.285
			c-1.57-1.523-2.354-3.688-2.354-6.492V53.755h4.347V64.51C175.216,66.07,175.579,67.301,176.302,68.201z"/>
		<path fill="#7C8988" d="M204.574,63.313h4.374v6.908c-1.932,2.154-4.606,3.232-8.023,3.232c-2.86,0-5.261-0.947-7.201-2.842
			c-1.941-1.895-2.912-4.285-2.912-7.174s0.989-5.299,2.968-7.23c1.978-1.932,4.364-2.897,7.159-2.897
			c2.796,0,5.225,0.919,7.286,2.758l-2.257,3.26c-0.873-0.762-1.677-1.287-2.41-1.575c-0.733-0.287-1.527-0.432-2.382-0.432
			c-1.653,0-3.046,0.563-4.179,1.686c-1.134,1.123-1.7,2.605-1.7,4.443s0.544,3.311,1.63,4.416c1.087,1.105,2.383,1.658,3.887,1.658
			c1.505,0,2.758-0.289,3.761-0.865V63.313z"/>
		<path fill="#7C8988" d="M224.957,53.755h4.346V73.23h-4.346v-7.662h-7.745v7.662h-4.347V53.755h4.347v8.135h7.745V53.755z"/>
		<path fill="#7C8988" d="M241.878,57.517V73.23h-4.347V57.517h-5.516v-3.762h15.379v3.762H241.878z"/>
		<path fill="#7C8988" d="M254.906,57.642c-0.418,0.344-0.627,0.799-0.627,1.366s0.255,1.016,0.767,1.352
			c0.51,0.334,1.689,0.729,3.538,1.184c1.848,0.455,3.282,1.137,4.304,2.047s1.532,2.238,1.532,3.984s-0.654,3.162-1.964,4.248
			c-1.31,1.088-3.032,1.631-5.168,1.631c-3.083,0-5.86-1.143-8.33-3.428l2.591-3.176c2.099,1.84,4.04,2.758,5.823,2.758
			c0.798,0,1.425-0.17,1.88-0.516c0.455-0.342,0.683-0.807,0.683-1.393c0-0.584-0.241-1.049-0.724-1.393
			c-0.483-0.344-1.44-0.691-2.87-1.045c-2.267-0.539-3.924-1.24-4.973-2.104c-1.05-0.863-1.574-2.219-1.574-4.066
			c0-1.849,0.664-3.274,1.992-4.277c1.327-1.003,2.985-1.505,4.973-1.505c1.3,0,2.601,0.223,3.9,0.669
			c1.3,0.445,2.433,1.077,3.399,1.895l-2.201,3.175c-1.69-1.281-3.437-1.922-5.238-1.922
			C255.895,57.126,255.324,57.299,254.906,57.642z"/>
	</g>
</g>
</svg>
